<?xml version="1.0" encoding="UTF-8"?>
<!DOCTYPE svg PUBLIC "-//W3C//DTD SVG 1.0//EN" "http://www.w3.org/TR/2001/REC-SVG-20010904/DTD/svg10.dtd">
<!-- Creator: CorelDRAW X8 -->
<svg xmlns="http://www.w3.org/2000/svg" xml:space="preserve" width="5.6606mm" height="5.6606mm" version="1.0" style="shape-rendering:geometricPrecision; text-rendering:geometricPrecision; image-rendering:optimizeQuality; fill-rule:evenodd; clip-rule:evenodd"
viewBox="0 0 225 225"
 xmlns:xlink="http://www.w3.org/1999/xlink">
 <defs>
  <style type="text/css">
   <![CDATA[
    .str0 {stroke:black;stroke-width:3.02366}
    .fil3 {fill:#9F8B0F}
    .fil0 {fill:#DEDEDE}
    .fil1 {fill:#FFCC00}
    .fil2 {fill:white}
   ]]>
  </style>
 </defs>
 <g id="Camada_x0020_1">
  <metadata id="CorelCorpID_0Corel-Layer"/>
  <circle class="fil0 str0" cx="112" cy="112" r="111"/>
  <g id="_109518584">
   <circle class="fil1 str0" cx="112" cy="112" r="86"/>
   <circle class="fil2" cx="68" cy="73" r="15"/>
   <path class="fil3" d="M116 36c43,0 79,35 79,79 0,43 -36,78 -79,78 -44,0 -79,-35 -79,-78 0,-4 0,-8 1,-12 7,13 22,22 38,22 25,0 44,-20 44,-44 0,-19 -11,-35 -28,-42 7,-2 15,-3 24,-3z"/>
  </g>
 </g>
</svg>
