<?xml version="1.0" standalone="no"?>
<!DOCTYPE svg PUBLIC "-//W3C//DTD SVG 20010904//EN"
 "http://www.w3.org/TR/2001/REC-SVG-20010904/DTD/svg10.dtd">
<svg version="1.0" xmlns="http://www.w3.org/2000/svg"
 width="512.000000pt" height="511.000000pt" viewBox="0 0 512.000000 511.000000"
 preserveAspectRatio="xMidYMid meet">

<g transform="translate(0.000000,511.000000) scale(0.100000,-0.100000)"
fill="#000000" stroke="none">
<path d="M2275 4735 c-304 -42 -610 -149 -855 -300 -835 -514 -1229 -1484
-988 -2430 226 -886 989 -1541 1905 -1636 145 -15 440 -7 573 16 801 135 1465
691 1725 1444 89 259 120 447 119 731 0 231 -14 343 -69 555 -227 874 -979
1524 -1877 1624 -126 14 -418 12 -533 -4z m407 -1775 c120 -37 207 -113 261
-229 40 -85 50 -218 22 -302 -120 -363 -614 -402 -782 -62 -33 67 -38 85 -41
168 -3 70 0 106 13 146 72 224 306 347 527 279z m-804 -635 c38 -114 85 -187
177 -280 65 -65 98 -90 175 -128 125 -62 199 -80 330 -80 312 0 579 190 681
487 l28 81 558 3 c306 1 560 -1 564 -5 4 -5 1 -48 -6 -98 -66 -462 -306 -886
-668 -1179 -557 -450 -1316 -541 -1962 -237 -474 224 -837 645 -985 1143 -30
99 -70 303 -70 354 l0 24 575 -2 576 -3 27 -80z"/>
</g>
</svg>
