<?xml version="1.0" encoding="UTF-8"?>
<!DOCTYPE svg PUBLIC "-//W3C//DTD SVG 1.0//EN" "http://www.w3.org/TR/2001/REC-SVG-20010904/DTD/svg10.dtd">
<!-- Creator: CorelDRAW X8 -->
<svg xmlns="http://www.w3.org/2000/svg" xml:space="preserve" width="25.5002mm" height="38.1998mm" version="1.0" style="shape-rendering:geometricPrecision; text-rendering:geometricPrecision; image-rendering:optimizeQuality; fill-rule:evenodd; clip-rule:evenodd"
viewBox="0 0 2550 3820"
 xmlns:xlink="http://www.w3.org/1999/xlink">
 <defs>
  <style type="text/css">
   <![CDATA[
    .str0 {stroke:black;stroke-width:10}
    .str1 {stroke:#1A1A1A;stroke-width:10}
    .str2 {stroke:black;stroke-width:7.62}
    .fil1 {fill:none}
    .fil12 {fill:black}
    .fil13 {fill:#00312B}
    .fil14 {fill:#00312B}
    .fil11 {fill:#006633}
    .fil16 {fill:#28AAFD}
    .fil10 {fill:#33CC33}
    .fil5 {fill:#89061C}
    .fil3 {fill:#89061C}
    .fil17 {fill:#909090}
    .fil9 {fill:#9F8B0F}
    .fil2 {fill:#DC0A2D}
    .fil0 {fill:#DC0A2D}
    .fil18 {fill:#DEDEDE}
    .fil4 {fill:#E9667C}
    .fil6 {fill:red}
    .fil15 {fill:red}
    .fil7 {fill:#FFCC00}
    .fil8 {fill:white}
   ]]>
  </style>
 </defs>
 <g id="Camada_x0020_1">
  <metadata id="CorelCorpID_0Corel-Layer"/>
  <polygon class="fil0 str0" points="5,5 2243,5 2243,3815 5,3815 "/>
  <path class="fil1 str0" d="M124 3728l2001 0c23,0 42,-20 42,-43 0,-994 0,-1989 0,-2983 0,-26 -21,-47 -47,-47l-437 0c-44,0 -61,16 -89,47l-281 305c-54,60 -150,64 -245,68l-944 0c-24,0 -43,19 -43,42l0 2568c0,23 19,43 43,43z"/>
  <polygon class="fil2 str0" points="2243,472 2545,472 2545,3815 2243,3815 "/>
  <polygon class="fil3" points="2483,472 2545,472 2545,3815 2483,3815 "/>
  <polygon class="fil4" points="2301,472 2363,472 2363,3815 2301,3815 "/>
  <polygon class="fil3 str0" points="2243,812 2545,812 2545,839 2243,839 "/>
  <g id="_109521344">
   <path class="fil5 str0" d="M5 63l2538 0 2 467 -922 -1c-41,14 -75,40 -102,78l-214 259c-27,33 -63,55 -112,63l-1187 0 -3 -866z"/>
   <path class="fil2 str0" d="M5 5l2538 0 2 467 -970 -1c-40,14 -74,40 -101,78l-215 259c-26,32 -62,55 -111,63l-1140 0 -3 -866z"/>
  </g>
  <path class="fil6 str0" d="M2029 53c32,0 57,26 57,57 0,32 -25,57 -57,57 -31,0 -57,-25 -57,-57 0,-31 26,-57 57,-57z"/>
  <path class="fil3" d="M2033 70c24,0 43,19 43,43 0,24 -19,43 -43,43 -24,0 -43,-19 -43,-43 0,-2 0,-4 0,-6 4,7 12,12 21,12 14,0 24,-11 24,-24 0,-11 -6,-19 -15,-23 4,-1 8,-2 13,-2z"/>
  <path class="fil7 str0" d="M2235 55c31,0 55,25 55,55 0,31 -24,55 -55,55 -30,0 -55,-24 -55,-55 0,-30 25,-55 55,-55z"/>
  <path class="fil8" d="M2213 83c5,0 10,4 10,9 0,5 -5,10 -10,10 -5,0 -9,-5 -9,-10 0,-5 4,-9 9,-9z"/>
  <path class="fil9" d="M2241 71c23,0 42,19 42,43 0,24 -19,43 -42,43 -24,0 -43,-19 -43,-43 0,-2 0,-4 0,-6 4,7 12,12 21,12 13,0 24,-11 24,-24 0,-10 -6,-19 -15,-23 4,-1 8,-2 13,-2z"/>
  <path class="fil10 str0" d="M2439 55c31,0 55,25 55,55 0,31 -24,55 -55,55 -30,0 -55,-24 -55,-55 0,-30 25,-55 55,-55z"/>
  <path class="fil8" d="M2417 83c5,0 9,4 9,9 0,5 -4,9 -9,9 -5,0 -9,-4 -9,-9 0,-5 4,-9 9,-9z"/>
  <path class="fil11" d="M2444 71c24,0 43,19 43,43 0,24 -19,43 -43,43 -24,0 -43,-19 -43,-43 0,-2 0,-4 0,-6 4,7 12,12 21,12 13,0 24,-11 24,-24 0,-11 -6,-20 -15,-23 4,-2 8,-2 13,-2z"/>
  <g id="_109515872">
   <g>
    <path class="fil12 str0" d="M1540 3297l144 0 0 -145c0,-11 10,-21 21,-21l112 0c11,0 21,10 21,21l0 145 145 0c11,0 21,9 21,21l0 112c0,11 -10,20 -21,20l-145 0 0 145c0,12 -10,21 -21,21l-112 0c-11,0 -21,-9 -21,-21l0 -145 -144 0c-12,0 -21,-9 -21,-20l0 -112c0,-12 9,-21 21,-21z"/>
    <path class="fil12 str0" d="M1761 3336c21,0 37,17 37,38 0,20 -16,37 -37,37 -20,0 -37,-17 -37,-37 0,-21 17,-38 37,-38z"/>
   </g>
   <g>
    <path class="fil13 str0" d="M1526 3282l145 0 0 -144c0,-12 10,-21 21,-21l112 0c11,0 21,9 21,21l0 144 144 0c12,0 21,10 21,21l0 112c0,11 -9,21 -21,21l-144 0 0 144c0,12 -10,21 -21,21l-112 0c-11,0 -21,-9 -21,-21l0 -144 -145 0c-11,0 -21,-10 -21,-21l0 -112c0,-11 10,-21 21,-21z"/>
    <path class="fil14 str0" d="M1748 3322c20,0 37,16 37,37 0,21 -17,37 -37,37 -21,0 -37,-16 -37,-37 0,-21 16,-37 37,-37z"/>
   </g>
  </g>
  <g id="_441868184">
   <g>
    <path class="fil12 str1" d="M841 2905c31,0 55,25 55,55 0,30 -24,55 -55,55 -30,0 -54,-25 -54,-55 0,-30 24,-55 54,-55z"/>
    <path class="fil14 str1" d="M836 2901c30,0 55,24 55,55 0,30 -25,54 -55,54 -30,0 -55,-24 -55,-54 0,-31 25,-55 55,-55z"/>
   </g>
   <path class="fil15 str1" d="M1002 2936l162 0c11,0 21,10 21,22l0 0c0,11 -10,21 -21,21l-162 0c-12,0 -21,-10 -21,-21l0 0c0,-12 9,-22 21,-22z"/>
   <path class="fil16 str1" d="M1314 2936l161 0c12,0 22,10 22,22l0 0c0,11 -10,21 -22,21l-161 0c-12,0 -22,-10 -22,-21l0 0c0,-12 10,-22 22,-22z"/>
  </g>
  <polygon class="fil3 str2" points="2243,3423 2545,3423 2545,3450 2243,3450 "/>
  <path class="fil17 str0" d="M239 1189l1829 0c21,0 38,17 38,38l0 1578c0,21 -17,38 -38,38l-1649 0c-34,0 -52,-12 -68,-29l-112 -114c-14,-14 -38,-64 -38,-85l0 -1388c0,-21 17,-38 38,-38z"/>
  <path class="fil18 str0" d="M209 1163l1829 0c21,0 38,17 38,38l0 1579c0,21 -17,38 -38,38l-1649 0c-34,0 -52,-12 -68,-29l-112 -114c-14,-15 -38,-64 -38,-85l0 -1389c0,-21 17,-38 38,-38z"/>
  <path class="fil12 str0" d="M296 1362l1656 0c24,0 44,20 44,44l0 1121c0,24 -20,44 -44,44l-1656 0c-24,0 -44,-20 -44,-44l0 -1121c0,-24 20,-44 44,-44z"/>
  <g id="_446897712">
   <path class="fil15 str0" d="M996 1233c21,0 38,16 38,37 0,21 -17,38 -38,38 -20,0 -37,-17 -37,-38 0,-21 17,-37 37,-37z"/>
   <path class="fil15 str0" d="M1251 1233c21,0 38,16 38,37 0,21 -17,38 -38,38 -20,0 -37,-17 -37,-38 0,-21 17,-37 37,-37z"/>
  </g>
  <path class="fil15 str0" d="M481 2627c35,0 64,29 64,64 0,35 -29,63 -64,63 -35,0 -64,-28 -64,-63 0,-35 29,-64 64,-64z"/>
  <g id="_446885040">
   <path class="fil12" d="M1800 2602l188 0c4,0 8,4 8,8l0 0c0,5 -4,8 -8,8l-188 0c-5,0 -8,-3 -8,-8l0 0c0,-4 3,-8 8,-8z"/>
   <path class="fil12" d="M1800 2710l188 0c4,0 8,3 8,8l0 0c0,4 -4,8 -8,8l-188 0c-5,0 -8,-4 -8,-8l0 0c0,-5 3,-8 8,-8z"/>
   <path class="fil12" d="M1800 2656l188 0c4,0 8,3 8,8l0 0c0,4 -4,8 -8,8l-188 0c-5,0 -8,-4 -8,-8l0 0c0,-5 3,-8 8,-8z"/>
   <path class="fil12" d="M1800 2763l188 0c4,0 8,4 8,8l0 0c0,5 -4,8 -8,8l-188 0c-5,0 -8,-3 -8,-8l0 0c0,-4 3,-8 8,-8z"/>
  </g>
 </g>
</svg>
